<svg width="800" height="600" xmlns="http://www.w3.org/2000/svg" xmlns:xlink="http://www.w3.org/1999/xlink" xml:space="preserve" overflow="hidden"><g transform="translate(-240 -60)"><path d="M303.6 584.4 312.6 584.4M715.5 584.4 706.5 584.4 706.51 584.4" stroke="#000000" fill="none"/><text font-family="Arial,Arial_MSFontService,sans-serif" font-weight="400" font-size="16" transform="translate(286.3 589)">0</text><path d="M303.6 490.3 312.6 490.3M715.5 490.3 706.5 490.3 706.51 490.3" stroke="#000000" fill="none"/><text font-family="Arial,Arial_MSFontService,sans-serif" font-weight="400" font-size="16" transform="translate(277.3 495)">10</text><path d="M303.6 396.3 312.6 396.3M715.5 396.3 706.5 396.3 706.51 396.3" stroke="#000000" fill="none"/><text font-family="Arial,Arial_MSFontService,sans-serif" font-weight="400" font-size="16" transform="translate(277.3 401)">20</text><path d="M303.6 302.2 312.6 302.2M715.5 302.2 706.5 302.2 706.51 302.2" stroke="#000000" fill="none"/><text font-family="Arial,Arial_MSFontService,sans-serif" font-weight="400" font-size="16" transform="translate(277.3 307)">30</text><path d="M303.6 208.2 312.6 208.2M715.5 208.2 706.5 208.2 706.51 208.2" stroke="#000000" fill="none"/><text font-family="Arial,Arial_MSFontService,sans-serif" font-weight="400" font-size="16" transform="translate(277.3 213)">40</text><path d="M303.6 114.1 312.6 114.1M715.5 114.1 706.5 114.1 706.51 114.1" stroke="#000000" fill="none"/><text font-family="Arial,Arial_MSFontService,sans-serif" font-weight="400" font-size="16" transform="translate(277.3 119)">50</text><path d="M303.6 584.4 303.6 575.4M303.6 114.1 303.6 123.1 303.61 123.1" stroke="#000000" fill="none"/><text font-family="Arial,Arial_MSFontService,sans-serif" font-weight="400" font-size="16" transform="translate(299.1 607)">0</text><path d="M386 584.4 386 575.4M386 114.1 386 123.1 386.01 123.1" stroke="#000000" fill="none"/><text font-family="Arial,Arial_MSFontService,sans-serif" font-weight="400" font-size="16" transform="translate(377 607)">50</text><path d="M468.4 584.4 468.4 575.4M468.4 114.1 468.4 123.1 468.41 123.1" stroke="#000000" fill="none"/><text font-family="Arial,Arial_MSFontService,sans-serif" font-weight="400" font-size="16" transform="translate(454.9 607)">100</text><path d="M550.7 584.4 550.7 575.4M550.7 114.1 550.7 123.1 550.71 123.1" stroke="#000000" fill="none"/><text font-family="Arial,Arial_MSFontService,sans-serif" font-weight="400" font-size="16" transform="translate(537.2 607)">150</text><path d="M633.1 584.4 633.1 575.4M633.1 114.1 633.1 123.1 633.11 123.1" stroke="#000000" fill="none"/><text font-family="Arial,Arial_MSFontService,sans-serif" font-weight="400" font-size="16" transform="translate(619.6 607)">200</text><path d="M715.5 584.4 715.5 575.4M715.5 114.1 715.5 123.1 715.51 123.1" stroke="#000000" fill="none"/><text font-family="Arial,Arial_MSFontService,sans-serif" font-weight="400" font-size="16" transform="translate(702 607)">250</text><path d="M303.6 114.1 303.6 584.4 715.5 584.4 715.5 114.1 303.6 114.1ZM303.6 114.1 303.61 114.1" stroke="#000000" fill="none"/><text font-family="Arial,Arial_MSFontService,sans-serif" font-weight="400" font-size="16" transform="matrix(-1.83697e-16 -1 1 -1.83697e-16 257.6 355)">E</text><text font-family="Arial,Arial_MSFontService,sans-serif" font-weight="400" font-size="16" transform="translate(499.441 634)">ω</text><text font-family="Arial,Arial_MSFontService,sans-serif" font-weight="400" font-size="12.8" transform="translate(512.441 626)">2</text><text font-family="Arial,Arial_MSFontService,sans-serif" font-weight="400" font-size="16" transform="translate(482.441 92)">ω</text><text font-family="Arial,Arial_MSFontService,sans-serif" font-weight="400" font-size="12.8" transform="translate(495.441 84)">2</text><text font-family="Arial,Arial_MSFontService,sans-serif" font-weight="400" font-size="16" transform="translate(502.559 92)"> </text><text font-family="Arial,Arial_MSFontService,sans-serif" font-weight="400" font-size="16" transform="translate(506.559 92)">vs E</text><text font-family="MS Gothic,MS Gothic_MSFontService,sans-serif" font-weight="400" font-size="16" transform="translate(818.8 128)">円筒解析解</text><text font-family="Arial,Arial_MSFontService,sans-serif" font-weight="400" font-size="16" transform="translate(898.8 128)">(</text><text font-family="MS Gothic,MS Gothic_MSFontService,sans-serif" font-weight="400" font-size="16" transform="translate(903.8 128)">基底状態</text><text font-family="Arial,Arial_MSFontService,sans-serif" font-weight="400" font-size="16" transform="translate(967.8 128)">)</text><path d="M981.1 123.1 1023.3 123.1M305.2 533.3 321.7 533.3 338.2 533.3 354.7 533.3 371.2 533.3 387.6 533.3 404.1 533.3 420.6 533.3 437.1 533.3 453.5 533.3 470 533.3 486.5 533.3 503 533.3 519.4 533.3 535.9 533.3 552.4 533.3 568.9 533.3 585.3 533.3 601.8 533.3 618.3 533.3 634.8 533.3 651.2 533.3 667.7 533.3 684.2 533.3 700.7 533.3 700.71 533.3" stroke="#FFA500" fill="none"/><path d="M300.7 533.3 309.7 533.3M305.2 528.8 305.2 537.8" stroke="#FFA500" stroke-width="0.999" fill="none"/><path d="M317.2 533.3 326.2 533.3M321.7 528.8 321.7 537.8" stroke="#FFA500" stroke-width="0.999" fill="none"/><path d="M333.7 533.3 342.7 533.3M338.2 528.8 338.2 537.8" stroke="#FFA500" stroke-width="0.999" fill="none"/><path d="M350.2 533.3 359.2 533.3M354.7 528.8 354.7 537.8" stroke="#FFA500" stroke-width="0.999" fill="none"/><path d="M366.7 533.3 375.7 533.3M371.2 528.8 371.2 537.8" stroke="#FFA500" stroke-width="0.999" fill="none"/><path d="M383.1 533.3 392.1 533.3M387.6 528.8 387.6 537.8" stroke="#FFA500" stroke-width="0.999" fill="none"/><path d="M399.6 533.3 408.6 533.3M404.1 528.8 404.1 537.8" stroke="#FFA500" stroke-width="0.999" fill="none"/><path d="M416.1 533.3 425.1 533.3M420.6 528.8 420.6 537.8" stroke="#FFA500" stroke-width="0.999" fill="none"/><path d="M432.6 533.3 441.6 533.3M437.1 528.8 437.1 537.8" stroke="#FFA500" stroke-width="0.999" fill="none"/><path d="M449 533.3 458 533.3M453.5 528.8 453.5 537.8" stroke="#FFA500" stroke-width="0.999" fill="none"/><path d="M465.5 533.3 474.5 533.3M470 528.8 470 537.8" stroke="#FFA500" stroke-width="0.999" fill="none"/><path d="M482 533.3 491 533.3M486.5 528.8 486.5 537.8" stroke="#FFA500" stroke-width="0.999" fill="none"/><path d="M498.5 533.3 507.5 533.3M503 528.8 503 537.8" stroke="#FFA500" stroke-width="0.999" fill="none"/><path d="M514.9 533.3 523.9 533.3M519.4 528.8 519.4 537.8" stroke="#FFA500" stroke-width="0.999" fill="none"/><path d="M531.4 533.3 540.4 533.3M535.9 528.8 535.9 537.8" stroke="#FFA500" stroke-width="0.999" fill="none"/><path d="M547.9 533.3 556.9 533.3M552.4 528.8 552.4 537.8" stroke="#FFA500" stroke-width="0.999" fill="none"/><path d="M564.4 533.3 573.4 533.3M568.9 528.8 568.9 537.8" stroke="#FFA500" stroke-width="0.999" fill="none"/><path d="M580.8 533.3 589.8 533.3M585.3 528.8 585.3 537.8" stroke="#FFA500" stroke-width="0.999" fill="none"/><path d="M597.3 533.3 606.3 533.3M601.8 528.8 601.8 537.8" stroke="#FFA500" stroke-width="0.999" fill="none"/><path d="M613.8 533.3 622.8 533.3M618.3 528.8 618.3 537.8" stroke="#FFA500" stroke-width="0.999" fill="none"/><path d="M630.3 533.3 639.3 533.3M634.8 528.8 634.8 537.8" stroke="#FFA500" stroke-width="0.999" fill="none"/><path d="M646.7 533.3 655.7 533.3M651.2 528.8 651.2 537.8" stroke="#FFA500" stroke-width="0.999" fill="none"/><path d="M663.2 533.3 672.2 533.3M667.7 528.8 667.7 537.8" stroke="#FFA500" stroke-width="0.999" fill="none"/><path d="M679.7 533.3 688.7 533.3M684.2 528.8 684.2 537.8" stroke="#FFA500" stroke-width="0.999" fill="none"/><path d="M696.2 533.3 705.2 533.3M700.7 528.8 700.7 537.8" stroke="#FFA500" stroke-width="0.999" fill="none"/><path d="M997.7 123.1 1006.7 123.1M1002.2 118.6 1002.2 127.6" stroke="#FFA500" stroke-width="0.999" fill="none"/><text font-family="MS Gothic,MS Gothic_MSFontService,sans-serif" font-weight="400" font-size="16" transform="translate(818.8 146)">調和解析解</text><text font-family="Arial,Arial_MSFontService,sans-serif" font-weight="400" font-size="16" transform="translate(898.8 146)">(</text><text font-family="MS Gothic,MS Gothic_MSFontService,sans-serif" font-weight="400" font-size="16" transform="translate(903.8 146)">基底状態</text><text font-family="Arial,Arial_MSFontService,sans-serif" font-weight="400" font-size="16" transform="translate(967.8 146)">)</text><path d="M981.1 141.1 1023.3 141.1M305.2 575 321.7 553.2 338.2 541.3 354.7 532 371.2 524.2 387.6 517.2 404.1 510.9 420.6 505.1 437.1 499.7 453.5 494.7 470 489.9 486.5 485.3 503 480.9 519.4 476.7 535.9 472.7 552.4 468.8 568.9 465.1 585.3 461.4 601.8 457.9 618.3 454.4 634.8 451 651.2 447.8 667.7 444.6 684.2 441.4 700.7 438.4 700.71 438.4" stroke="#9ACD32" fill="none"/><path d="M300.7 570.5 309.7 579.5M309.7 570.5 300.7 579.5" stroke="#9ACD32" stroke-width="0.999" fill="none"/><path d="M317.2 548.7 326.2 557.7M326.2 548.7 317.2 557.7" stroke="#9ACD32" stroke-width="0.999" fill="none"/><path d="M333.7 536.8 342.7 545.8M342.7 536.8 333.7 545.8" stroke="#9ACD32" stroke-width="0.999" fill="none"/><path d="M350.2 527.5 359.2 536.5M359.2 527.5 350.2 536.5" stroke="#9ACD32" stroke-width="0.999" fill="none"/><path d="M366.7 519.7 375.7 528.7M375.7 519.7 366.7 528.7" stroke="#9ACD32" stroke-width="0.999" fill="none"/><path d="M383.1 512.7 392.1 521.7M392.1 512.7 383.1 521.7" stroke="#9ACD32" stroke-width="0.999" fill="none"/><path d="M399.6 506.4 408.6 515.4M408.6 506.4 399.6 515.4" stroke="#9ACD32" stroke-width="0.999" fill="none"/><path d="M416.1 500.6 425.1 509.6M425.1 500.6 416.1 509.6" stroke="#9ACD32" stroke-width="0.999" fill="none"/><path d="M432.6 495.2 441.6 504.2M441.6 495.2 432.6 504.2" stroke="#9ACD32" stroke-width="0.999" fill="none"/><path d="M449 490.2 458 499.2M458 490.2 449 499.2" stroke="#9ACD32" stroke-width="0.999" fill="none"/><path d="M465.5 485.4 474.5 494.4M474.5 485.4 465.5 494.4" stroke="#9ACD32" stroke-width="0.999" fill="none"/><path d="M482 480.8 491 489.8M491 480.8 482 489.8" stroke="#9ACD32" stroke-width="0.999" fill="none"/><path d="M498.5 476.4 507.5 485.4M507.5 476.4 498.5 485.4" stroke="#9ACD32" stroke-width="0.999" fill="none"/><path d="M514.9 472.2 523.9 481.2M523.9 472.2 514.9 481.2" stroke="#9ACD32" stroke-width="0.999" fill="none"/><path d="M531.4 468.2 540.4 477.2M540.4 468.2 531.4 477.2" stroke="#9ACD32" stroke-width="0.999" fill="none"/><path d="M547.9 464.3 556.9 473.3M556.9 464.3 547.9 473.3" stroke="#9ACD32" stroke-width="0.999" fill="none"/><path d="M564.4 460.6 573.4 469.6M573.4 460.6 564.4 469.6" stroke="#9ACD32" stroke-width="0.999" fill="none"/><path d="M580.8 456.9 589.8 465.9M589.8 456.9 580.8 465.9" stroke="#9ACD32" stroke-width="0.999" fill="none"/><path d="M597.3 453.4 606.3 462.4M606.3 453.4 597.3 462.4" stroke="#9ACD32" stroke-width="0.999" fill="none"/><path d="M613.8 449.9 622.8 458.9M622.8 449.9 613.8 458.9" stroke="#9ACD32" stroke-width="0.999" fill="none"/><path d="M630.3 446.5 639.3 455.5M639.3 446.5 630.3 455.5" stroke="#9ACD32" stroke-width="0.999" fill="none"/><path d="M646.7 443.3 655.7 452.3M655.7 443.3 646.7 452.3" stroke="#9ACD32" stroke-width="0.999" fill="none"/><path d="M663.2 440.1 672.2 449.1M672.2 440.1 663.2 449.1" stroke="#9ACD32" stroke-width="0.999" fill="none"/><path d="M679.7 436.9 688.7 445.9M688.7 436.9 679.7 445.9" stroke="#9ACD32" stroke-width="0.999" fill="none"/><path d="M696.2 433.9 705.2 442.9M705.2 433.9 696.2 442.9" stroke="#9ACD32" stroke-width="0.999" fill="none"/><path d="M997.7 136.6 1006.7 145.6M1006.7 136.6 997.7 145.6" stroke="#9ACD32" stroke-width="0.999" fill="none"/><text font-family="Arial,Arial_MSFontService,sans-serif" font-weight="400" font-size="16" transform="translate(805.8 164)">Hybrid</text><text font-family="MS Gothic,MS Gothic_MSFontService,sans-serif" font-weight="400" font-size="16" transform="translate(850.8 164)">数値解</text><text font-family="Arial,Arial_MSFontService,sans-serif" font-weight="400" font-size="16" transform="translate(898.8 164)">(</text><text font-family="MS Gothic,MS Gothic_MSFontService,sans-serif" font-weight="400" font-size="16" transform="translate(903.8 164)">基底状態</text><text font-family="Arial,Arial_MSFontService,sans-serif" font-weight="400" font-size="16" transform="translate(967.8 164)">)</text><path d="M981.1 159.1 1023.3 159.1M305.2 535.1 321.7 529.5 338.2 524.1 354.7 518.9 371.2 513.8 387.6 509 404.1 504.2 420.6 499.7 437.1 495.2 453.5 490.9 470 486.8 486.5 482.7 503 478.8 519.4 475 535.9 471.2 552.4 467.6 568.9 464 585.3 460.6 601.8 457.2 618.3 453.8 634.8 450.6 651.2 447.4 667.7 444.3 684.2 441.3 700.7 438.3 700.71 438.3" stroke="#0000FF" fill="none"/><path d="M300.7 535.1 309.7 535.1M305.2 530.6 305.2 539.6M300.7 530.6 309.7 539.6M300.7 539.6 309.7 530.6" stroke="#0000FF" stroke-width="0.999" fill="none"/><path d="M317.2 529.5 326.2 529.5M321.7 525 321.7 534M317.2 525 326.2 534M317.2 534 326.2 525" stroke="#0000FF" stroke-width="0.999" fill="none"/><path d="M333.7 524.1 342.7 524.1M338.2 519.6 338.2 528.6M333.7 519.6 342.7 528.6M333.7 528.6 342.7 519.6" stroke="#0000FF" stroke-width="0.999" fill="none"/><path d="M350.2 518.9 359.2 518.9M354.7 514.4 354.7 523.4M350.2 514.4 359.2 523.4M350.2 523.4 359.2 514.4" stroke="#0000FF" stroke-width="0.999" fill="none"/><path d="M366.7 513.8 375.7 513.8M371.2 509.3 371.2 518.3M366.7 509.3 375.7 518.3M366.7 518.3 375.7 509.3" stroke="#0000FF" stroke-width="0.999" fill="none"/><path d="M383.1 509 392.1 509M387.6 504.5 387.6 513.5M383.1 504.5 392.1 513.5M383.1 513.5 392.1 504.5" stroke="#0000FF" stroke-width="0.999" fill="none"/><path d="M399.6 504.2 408.6 504.2M404.1 499.7 404.1 508.7M399.6 499.7 408.6 508.7M399.6 508.7 408.6 499.7" stroke="#0000FF" stroke-width="0.999" fill="none"/><path d="M416.1 499.7 425.1 499.7M420.6 495.2 420.6 504.2M416.1 495.2 425.1 504.2M416.1 504.2 425.1 495.2" stroke="#0000FF" stroke-width="0.999" fill="none"/><path d="M432.6 495.2 441.6 495.2M437.1 490.7 437.1 499.7M432.6 490.7 441.6 499.7M432.6 499.7 441.6 490.7" stroke="#0000FF" stroke-width="0.999" fill="none"/><path d="M449 490.9 458 490.9M453.5 486.4 453.5 495.4M449 486.4 458 495.4M449 495.4 458 486.4" stroke="#0000FF" stroke-width="0.999" fill="none"/><path d="M465.5 486.8 474.5 486.8M470 482.3 470 491.3M465.5 482.3 474.5 491.3M465.5 491.3 474.5 482.3" stroke="#0000FF" stroke-width="0.999" fill="none"/><path d="M482 482.7 491 482.7M486.5 478.2 486.5 487.2M482 478.2 491 487.2M482 487.2 491 478.2" stroke="#0000FF" stroke-width="0.999" fill="none"/><path d="M498.5 478.8 507.5 478.8M503 474.3 503 483.3M498.5 474.3 507.5 483.3M498.5 483.3 507.5 474.3" stroke="#0000FF" stroke-width="0.999" fill="none"/><path d="M514.9 475 523.9 475M519.4 470.5 519.4 479.5M514.9 470.5 523.9 479.5M514.9 479.5 523.9 470.5" stroke="#0000FF" stroke-width="0.999" fill="none"/><path d="M531.4 471.2 540.4 471.2M535.9 466.7 535.9 475.7M531.4 466.7 540.4 475.7M531.4 475.7 540.4 466.7" stroke="#0000FF" stroke-width="0.999" fill="none"/><path d="M547.9 467.6 556.9 467.6M552.4 463.1 552.4 472.1M547.9 463.1 556.9 472.1M547.9 472.1 556.9 463.1" stroke="#0000FF" stroke-width="0.999" fill="none"/><path d="M564.4 464 573.4 464M568.9 459.5 568.9 468.5M564.4 459.5 573.4 468.5M564.4 468.5 573.4 459.5" stroke="#0000FF" stroke-width="0.999" fill="none"/><path d="M580.8 460.6 589.8 460.6M585.3 456.1 585.3 465.1M580.8 456.1 589.8 465.1M580.8 465.1 589.8 456.1" stroke="#0000FF" stroke-width="0.999" fill="none"/><path d="M597.3 457.2 606.3 457.2M601.8 452.7 601.8 461.7M597.3 452.7 606.3 461.7M597.3 461.7 606.3 452.7" stroke="#0000FF" stroke-width="0.999" fill="none"/><path d="M613.8 453.8 622.8 453.8M618.3 449.3 618.3 458.3M613.8 449.3 622.8 458.3M613.8 458.3 622.8 449.3" stroke="#0000FF" stroke-width="0.999" fill="none"/><path d="M630.3 450.6 639.3 450.6M634.8 446.1 634.8 455.1M630.3 446.1 639.3 455.1M630.3 455.1 639.3 446.1" stroke="#0000FF" stroke-width="0.999" fill="none"/><path d="M646.7 447.4 655.7 447.4M651.2 442.9 651.2 451.9M646.7 442.9 655.7 451.9M646.7 451.9 655.7 442.9" stroke="#0000FF" stroke-width="0.999" fill="none"/><path d="M663.2 444.3 672.2 444.3M667.7 439.8 667.7 448.8M663.2 439.8 672.2 448.8M663.2 448.8 672.2 439.8" stroke="#0000FF" stroke-width="0.999" fill="none"/><path d="M679.7 441.3 688.7 441.3M684.2 436.8 684.2 445.8M679.7 436.8 688.7 445.8M679.7 445.8 688.7 436.8" stroke="#0000FF" stroke-width="0.999" fill="none"/><path d="M696.2 438.3 705.2 438.3M700.7 433.8 700.7 442.8M696.2 433.8 705.2 442.8M696.2 442.8 705.2 433.8" stroke="#0000FF" stroke-width="0.999" fill="none"/><path d="M997.7 159.1 1006.7 159.1M1002.2 154.6 1002.2 163.6M997.7 154.6 1006.7 163.6M997.7 163.6 1006.7 154.6" stroke="#0000FF" stroke-width="0.999" fill="none"/><text font-family="MS Gothic,MS Gothic_MSFontService,sans-serif" font-weight="400" font-size="16" transform="translate(825.8 182)">円筒解析解</text><text font-family="Arial,Arial_MSFontService,sans-serif" font-weight="400" font-size="16" transform="translate(905.8 182)">(</text><text font-family="MS Gothic,MS Gothic_MSFontService,sans-serif" font-weight="400" font-size="16" transform="translate(910.8 182)">第</text><text font-family="Arial,Arial_MSFontService,sans-serif" font-weight="400" font-size="16" transform="translate(926.8 182)">1</text><text font-family="MS Gothic,MS Gothic_MSFontService,sans-serif" font-weight="400" font-size="16" transform="translate(935.8 182)">励起</text><text font-family="Arial,Arial_MSFontService,sans-serif" font-weight="400" font-size="16" transform="translate(967.8 182)">)</text><path d="M981.1 177.1 1023.3 177.1M305.2 454.6 321.7 454.6 338.2 454.6 354.7 454.6 371.2 454.6 387.6 454.6 404.1 454.6 420.6 454.6 437.1 454.6 453.5 454.6 470 454.6 486.5 454.6 503 454.6 519.4 454.6 535.9 454.6 552.4 454.6 568.9 454.6 585.3 454.6 601.8 454.6 618.3 454.6 634.8 454.6 651.2 454.6 667.7 454.6 684.2 454.6 700.7 454.6 700.71 454.6" stroke="#FFA500" fill="none"/><path d="M300.7 450.1 309.7 450.1 309.7 459.1 300.7 459.1Z" stroke="#FFA500" stroke-width="0.999" fill="none"/><path d="M317.2 450.1 326.2 450.1 326.2 459.1 317.2 459.1Z" stroke="#FFA500" stroke-width="0.999" fill="none"/><path d="M333.7 450.1 342.7 450.1 342.7 459.1 333.7 459.1Z" stroke="#FFA500" stroke-width="0.999" fill="none"/><path d="M350.2 450.1 359.2 450.1 359.2 459.1 350.2 459.1Z" stroke="#FFA500" stroke-width="0.999" fill="none"/><path d="M366.7 450.1 375.7 450.1 375.7 459.1 366.7 459.1Z" stroke="#FFA500" stroke-width="0.999" fill="none"/><path d="M383.1 450.1 392.1 450.1 392.1 459.1 383.1 459.1Z" stroke="#FFA500" stroke-width="0.999" fill="none"/><path d="M399.6 450.1 408.6 450.1 408.6 459.1 399.6 459.1Z" stroke="#FFA500" stroke-width="0.999" fill="none"/><path d="M416.1 450.1 425.1 450.1 425.1 459.1 416.1 459.1Z" stroke="#FFA500" stroke-width="0.999" fill="none"/><path d="M432.6 450.1 441.6 450.1 441.6 459.1 432.6 459.1Z" stroke="#FFA500" stroke-width="0.999" fill="none"/><path d="M449 450.1 458 450.1 458 459.1 449 459.1Z" stroke="#FFA500" stroke-width="0.999" fill="none"/><path d="M465.5 450.1 474.5 450.1 474.5 459.1 465.5 459.1Z" stroke="#FFA500" stroke-width="0.999" fill="none"/><path d="M482 450.1 491 450.1 491 459.1 482 459.1Z" stroke="#FFA500" stroke-width="0.999" fill="none"/><path d="M498.5 450.1 507.5 450.1 507.5 459.1 498.5 459.1Z" stroke="#FFA500" stroke-width="0.999" fill="none"/><path d="M514.9 450.1 523.9 450.1 523.9 459.1 514.9 459.1Z" stroke="#FFA500" stroke-width="0.999" fill="none"/><path d="M531.4 450.1 540.4 450.1 540.4 459.1 531.4 459.1Z" stroke="#FFA500" stroke-width="0.999" fill="none"/><path d="M547.9 450.1 556.9 450.1 556.9 459.1 547.9 459.1Z" stroke="#FFA500" stroke-width="0.999" fill="none"/><path d="M564.4 450.1 573.4 450.1 573.4 459.1 564.4 459.1Z" stroke="#FFA500" stroke-width="0.999" fill="none"/><path d="M580.8 450.1 589.8 450.1 589.8 459.1 580.8 459.1Z" stroke="#FFA500" stroke-width="0.999" fill="none"/><path d="M597.3 450.1 606.3 450.1 606.3 459.1 597.3 459.1Z" stroke="#FFA500" stroke-width="0.999" fill="none"/><path d="M613.8 450.1 622.8 450.1 622.8 459.1 613.8 459.1Z" stroke="#FFA500" stroke-width="0.999" fill="none"/><path d="M630.3 450.1 639.3 450.1 639.3 459.1 630.3 459.1Z" stroke="#FFA500" stroke-width="0.999" fill="none"/><path d="M646.7 450.1 655.7 450.1 655.7 459.1 646.7 459.1Z" stroke="#FFA500" stroke-width="0.999" fill="none"/><path d="M663.2 450.1 672.2 450.1 672.2 459.1 663.2 459.1Z" stroke="#FFA500" stroke-width="0.999" fill="none"/><path d="M679.7 450.1 688.7 450.1 688.7 459.1 679.7 459.1Z" stroke="#FFA500" stroke-width="0.999" fill="none"/><path d="M696.2 450.1 705.2 450.1 705.2 459.1 696.2 459.1Z" stroke="#FFA500" stroke-width="0.999" fill="none"/><path d="M997.7 172.6 1006.7 172.6 1006.7 181.6 997.7 181.6Z" stroke="#FFA500" stroke-width="0.999" fill="none"/><text font-family="MS Gothic,MS Gothic_MSFontService,sans-serif" font-weight="400" font-size="16" transform="translate(825.8 200)">調和解析解</text><text font-family="Arial,Arial_MSFontService,sans-serif" font-weight="400" font-size="16" transform="translate(905.8 200)">(</text><text font-family="MS Gothic,MS Gothic_MSFontService,sans-serif" font-weight="400" font-size="16" transform="translate(910.8 200)">第</text><text font-family="Arial,Arial_MSFontService,sans-serif" font-weight="400" font-size="16" transform="translate(926.8 200)">1</text><text font-family="MS Gothic,MS Gothic_MSFontService,sans-serif" font-weight="400" font-size="16" transform="translate(935.8 200)">励起</text><text font-family="Arial,Arial_MSFontService,sans-serif" font-weight="400" font-size="16" transform="translate(967.8 200)">)</text><path d="M981.1 195.1 1023.3 195.1M305.2 565.6 321.7 522 338.2 498.2 354.7 479.7 371.2 463.9 387.6 450.1 404.1 437.5 420.6 425.9 437.1 415.1 453.5 404.9 470 395.3 486.5 386.2 503 377.5 519.4 369.1 535.9 361 552.4 353.2 568.9 345.7 585.3 338.4 601.8 331.3 618.3 324.4 634.8 317.7 651.2 311.1 667.7 304.7 684.2 298.5 700.7 292.4 700.71 292.4" stroke="#9ACD32" fill="none"/><path d="M300.7 561.1 309.7 561.1 309.7 570.1 300.7 570.1Z" stroke="#9ACD32" stroke-width="0.999" fill="#9ACD32"/><path d="M317.2 517.5 326.2 517.5 326.2 526.5 317.2 526.5Z" stroke="#9ACD32" stroke-width="0.999" fill="#9ACD32"/><path d="M333.7 493.7 342.7 493.7 342.7 502.7 333.7 502.7Z" stroke="#9ACD32" stroke-width="0.999" fill="#9ACD32"/><path d="M350.2 475.2 359.2 475.2 359.2 484.2 350.2 484.2Z" stroke="#9ACD32" stroke-width="0.999" fill="#9ACD32"/><path d="M366.7 459.4 375.7 459.4 375.7 468.4 366.7 468.4Z" stroke="#9ACD32" stroke-width="0.999" fill="#9ACD32"/><path d="M383.1 445.6 392.1 445.6 392.1 454.6 383.1 454.6Z" stroke="#9ACD32" stroke-width="0.999" fill="#9ACD32"/><path d="M399.6 433 408.6 433 408.6 442 399.6 442Z" stroke="#9ACD32" stroke-width="0.999" fill="#9ACD32"/><path d="M416.1 421.4 425.1 421.4 425.1 430.4 416.1 430.4Z" stroke="#9ACD32" stroke-width="0.999" fill="#9ACD32"/><path d="M432.6 410.6 441.6 410.6 441.6 419.6 432.6 419.6Z" stroke="#9ACD32" stroke-width="0.999" fill="#9ACD32"/><path d="M449 400.4 458 400.4 458 409.4 449 409.4Z" stroke="#9ACD32" stroke-width="0.999" fill="#9ACD32"/><path d="M465.5 390.8 474.5 390.8 474.5 399.8 465.5 399.8Z" stroke="#9ACD32" stroke-width="0.999" fill="#9ACD32"/><path d="M482 381.7 491 381.7 491 390.7 482 390.7Z" stroke="#9ACD32" stroke-width="0.999" fill="#9ACD32"/><path d="M498.5 373 507.5 373 507.5 382 498.5 382Z" stroke="#9ACD32" stroke-width="0.999" fill="#9ACD32"/><path d="M514.9 364.6 523.9 364.6 523.9 373.6 514.9 373.6Z" stroke="#9ACD32" stroke-width="0.999" fill="#9ACD32"/><path d="M531.4 356.5 540.4 356.5 540.4 365.5 531.4 365.5Z" stroke="#9ACD32" stroke-width="0.999" fill="#9ACD32"/><path d="M547.9 348.7 556.9 348.7 556.9 357.7 547.9 357.7Z" stroke="#9ACD32" stroke-width="0.999" fill="#9ACD32"/><path d="M564.4 341.2 573.4 341.2 573.4 350.2 564.4 350.2Z" stroke="#9ACD32" stroke-width="0.999" fill="#9ACD32"/><path d="M580.8 333.9 589.8 333.9 589.8 342.9 580.8 342.9Z" stroke="#9ACD32" stroke-width="0.999" fill="#9ACD32"/><path d="M597.3 326.8 606.3 326.8 606.3 335.8 597.3 335.8Z" stroke="#9ACD32" stroke-width="0.999" fill="#9ACD32"/><path d="M613.8 319.9 622.8 319.9 622.8 328.9 613.8 328.9Z" stroke="#9ACD32" stroke-width="0.999" fill="#9ACD32"/><path d="M630.3 313.2 639.3 313.2 639.3 322.2 630.3 322.2Z" stroke="#9ACD32" stroke-width="0.999" fill="#9ACD32"/><path d="M646.7 306.6 655.7 306.6 655.7 315.6 646.7 315.6Z" stroke="#9ACD32" stroke-width="0.999" fill="#9ACD32"/><path d="M663.2 300.2 672.2 300.2 672.2 309.2 663.2 309.2Z" stroke="#9ACD32" stroke-width="0.999" fill="#9ACD32"/><path d="M679.7 294 688.7 294 688.7 303 679.7 303Z" stroke="#9ACD32" stroke-width="0.999" fill="#9ACD32"/><path d="M696.2 287.9 705.2 287.9 705.2 296.9 696.2 296.9Z" stroke="#9ACD32" stroke-width="0.999" fill="#9ACD32"/><path d="M997.7 190.6 1006.7 190.6 1006.7 199.6 997.7 199.6Z" stroke="#9ACD32" stroke-width="0.999" fill="#9ACD32"/><text font-family="Arial,Arial_MSFontService,sans-serif" font-weight="400" font-size="16" transform="translate(812.8 218)">Hybrid</text><text font-family="MS Gothic,MS Gothic_MSFontService,sans-serif" font-weight="400" font-size="16" transform="translate(857.8 218)">数値解</text><text font-family="Arial,Arial_MSFontService,sans-serif" font-weight="400" font-size="16" transform="translate(905.8 218)">(</text><text font-family="MS Gothic,MS Gothic_MSFontService,sans-serif" font-weight="400" font-size="16" transform="translate(910.8 218)">第</text><text font-family="Arial,Arial_MSFontService,sans-serif" font-weight="400" font-size="16" transform="translate(926.8 218)">1</text><text font-family="MS Gothic,MS Gothic_MSFontService,sans-serif" font-weight="400" font-size="16" transform="translate(935.8 218)">励起</text><text font-family="Arial,Arial_MSFontService,sans-serif" font-weight="400" font-size="16" transform="translate(967.8 218)">)</text><path d="M981.1 213.1 1023.3 213.1M305.2 460 321.7 451.4 338.2 442.9 354.7 434.6 371.2 426.4 387.6 418.3 404.1 410.5 420.6 402.7 437.1 395.1 453.5 387.7 470 380.4 486.5 373.2 503 366.1 519.4 359.2 535.9 352.4 552.4 345.7 568.9 339.1 585.3 332.7 601.8 326.3 618.3 320.1 634.8 314 651.2 307.9 667.7 302 684.2 296.1 700.7 290.4 700.71 290.4" stroke="#0000FF" fill="none"/><path d="M309.7 460C309.7 462.485 307.685 464.5 305.2 464.5 302.715 464.5 300.7 462.485 300.7 460 300.7 457.515 302.715 455.5 305.2 455.5 307.685 455.5 309.7 457.515 309.7 460Z" stroke="#0000FF" stroke-width="0.999" fill="none"/><path d="M326.2 451.4C326.2 453.885 324.185 455.9 321.7 455.9 319.215 455.9 317.2 453.885 317.2 451.4 317.2 448.915 319.215 446.9 321.7 446.9 324.185 446.9 326.2 448.915 326.2 451.4Z" stroke="#0000FF" stroke-width="0.999" fill="none"/><path d="M342.7 442.9C342.7 445.385 340.685 447.4 338.2 447.4 335.715 447.4 333.7 445.385 333.7 442.9 333.7 440.415 335.715 438.4 338.2 438.4 340.685 438.4 342.7 440.415 342.7 442.9Z" stroke="#0000FF" stroke-width="0.999" fill="none"/><path d="M359.2 434.6C359.2 437.085 357.185 439.1 354.7 439.1 352.215 439.1 350.2 437.085 350.2 434.6 350.2 432.115 352.215 430.1 354.7 430.1 357.185 430.1 359.2 432.115 359.2 434.6Z" stroke="#0000FF" stroke-width="0.999" fill="none"/><path d="M375.7 426.4C375.7 428.885 373.685 430.9 371.2 430.9 368.715 430.9 366.7 428.885 366.7 426.4 366.7 423.915 368.715 421.9 371.2 421.9 373.685 421.9 375.7 423.915 375.7 426.4Z" stroke="#0000FF" stroke-width="0.999" fill="none"/><path d="M392.1 418.3C392.1 420.785 390.085 422.8 387.6 422.8 385.115 422.8 383.1 420.785 383.1 418.3 383.1 415.815 385.115 413.8 387.6 413.8 390.085 413.8 392.1 415.815 392.1 418.3Z" stroke="#0000FF" stroke-width="0.999" fill="none"/><path d="M408.6 410.5C408.6 412.985 406.585 415 404.1 415 401.615 415 399.6 412.985 399.6 410.5 399.6 408.015 401.615 406 404.1 406 406.585 406 408.6 408.015 408.6 410.5Z" stroke="#0000FF" stroke-width="0.999" fill="none"/><path d="M425.1 402.7C425.1 405.185 423.085 407.2 420.6 407.2 418.115 407.2 416.1 405.185 416.1 402.7 416.1 400.215 418.115 398.2 420.6 398.2 423.085 398.2 425.1 400.215 425.1 402.7Z" stroke="#0000FF" stroke-width="0.999" fill="none"/><path d="M441.6 395.1C441.6 397.585 439.585 399.6 437.1 399.6 434.615 399.6 432.6 397.585 432.6 395.1 432.6 392.615 434.615 390.6 437.1 390.6 439.585 390.6 441.6 392.615 441.6 395.1Z" stroke="#0000FF" stroke-width="0.999" fill="none"/><path d="M458 387.7C458 390.185 455.985 392.2 453.5 392.2 451.015 392.2 449 390.185 449 387.7 449 385.215 451.015 383.2 453.5 383.2 455.985 383.2 458 385.215 458 387.7Z" stroke="#0000FF" stroke-width="0.999" fill="none"/><path d="M474.5 380.4C474.5 382.885 472.485 384.9 470 384.9 467.515 384.9 465.5 382.885 465.5 380.4 465.5 377.915 467.515 375.9 470 375.9 472.485 375.9 474.5 377.915 474.5 380.4Z" stroke="#0000FF" stroke-width="0.999" fill="none"/><path d="M491 373.2C491 375.685 488.985 377.7 486.5 377.7 484.015 377.7 482 375.685 482 373.2 482 370.715 484.015 368.7 486.5 368.7 488.985 368.7 491 370.715 491 373.2Z" stroke="#0000FF" stroke-width="0.999" fill="none"/><path d="M507.5 366.1C507.5 368.585 505.485 370.6 503 370.6 500.515 370.6 498.5 368.585 498.5 366.1 498.5 363.615 500.515 361.6 503 361.6 505.485 361.6 507.5 363.615 507.5 366.1Z" stroke="#0000FF" stroke-width="0.999" fill="none"/><path d="M523.9 359.2C523.9 361.685 521.885 363.7 519.4 363.7 516.915 363.7 514.9 361.685 514.9 359.2 514.9 356.715 516.915 354.7 519.4 354.7 521.885 354.7 523.9 356.715 523.9 359.2Z" stroke="#0000FF" stroke-width="0.999" fill="none"/><path d="M540.4 352.4C540.4 354.885 538.385 356.9 535.9 356.9 533.415 356.9 531.4 354.885 531.4 352.4 531.4 349.915 533.415 347.9 535.9 347.9 538.385 347.9 540.4 349.915 540.4 352.4Z" stroke="#0000FF" stroke-width="0.999" fill="none"/><path d="M556.9 345.7C556.9 348.185 554.885 350.2 552.4 350.2 549.915 350.2 547.9 348.185 547.9 345.7 547.9 343.215 549.915 341.2 552.4 341.2 554.885 341.2 556.9 343.215 556.9 345.7Z" stroke="#0000FF" stroke-width="0.999" fill="none"/><path d="M573.4 339.1C573.4 341.585 571.385 343.6 568.9 343.6 566.415 343.6 564.4 341.585 564.4 339.1 564.4 336.615 566.415 334.6 568.9 334.6 571.385 334.6 573.4 336.615 573.4 339.1Z" stroke="#0000FF" stroke-width="0.999" fill="none"/><path d="M589.8 332.7C589.8 335.185 587.785 337.2 585.3 337.2 582.815 337.2 580.8 335.185 580.8 332.7 580.8 330.215 582.815 328.2 585.3 328.2 587.785 328.2 589.8 330.215 589.8 332.7Z" stroke="#0000FF" stroke-width="0.999" fill="none"/><path d="M606.3 326.3C606.3 328.785 604.285 330.8 601.8 330.8 599.315 330.8 597.3 328.785 597.3 326.3 597.3 323.815 599.315 321.8 601.8 321.8 604.285 321.8 606.3 323.815 606.3 326.3Z" stroke="#0000FF" stroke-width="0.999" fill="none"/><path d="M622.8 320.1C622.8 322.585 620.785 324.6 618.3 324.6 615.815 324.6 613.8 322.585 613.8 320.1 613.8 317.615 615.815 315.6 618.3 315.6 620.785 315.6 622.8 317.615 622.8 320.1Z" stroke="#0000FF" stroke-width="0.999" fill="none"/><path d="M639.3 314C639.3 316.485 637.285 318.5 634.8 318.5 632.315 318.5 630.3 316.485 630.3 314 630.3 311.515 632.315 309.5 634.8 309.5 637.285 309.5 639.3 311.515 639.3 314Z" stroke="#0000FF" stroke-width="0.999" fill="none"/><path d="M655.7 307.9C655.7 310.385 653.685 312.4 651.2 312.4 648.715 312.4 646.7 310.385 646.7 307.9 646.7 305.415 648.715 303.4 651.2 303.4 653.685 303.4 655.7 305.415 655.7 307.9Z" stroke="#0000FF" stroke-width="0.999" fill="none"/><path d="M672.2 302C672.2 304.485 670.185 306.5 667.7 306.5 665.215 306.5 663.2 304.485 663.2 302 663.2 299.515 665.215 297.5 667.7 297.5 670.185 297.5 672.2 299.515 672.2 302Z" stroke="#0000FF" stroke-width="0.999" fill="none"/><path d="M688.7 296.1C688.7 298.585 686.685 300.6 684.2 300.6 681.715 300.6 679.7 298.585 679.7 296.1 679.7 293.615 681.715 291.6 684.2 291.6 686.685 291.6 688.7 293.615 688.7 296.1Z" stroke="#0000FF" stroke-width="0.999" fill="none"/><path d="M705.2 290.4C705.2 292.885 703.185 294.9 700.7 294.9 698.215 294.9 696.2 292.885 696.2 290.4 696.2 287.915 698.215 285.9 700.7 285.9 703.185 285.9 705.2 287.915 705.2 290.4Z" stroke="#0000FF" stroke-width="0.999" fill="none"/><path d="M1006.7 213.1C1006.7 215.585 1004.69 217.6 1002.2 217.6 999.715 217.6 997.7 215.585 997.7 213.1 997.7 210.615 999.715 208.6 1002.2 208.6 1004.69 208.6 1006.7 210.615 1006.7 213.1Z" stroke="#0000FF" stroke-width="0.999" fill="none"/><text font-family="MS Gothic,MS Gothic_MSFontService,sans-serif" font-weight="400" font-size="16" transform="translate(825.8 236)">円筒解析解</text><text font-family="Arial,Arial_MSFontService,sans-serif" font-weight="400" font-size="16" transform="translate(905.8 236)">(</text><text font-family="MS Gothic,MS Gothic_MSFontService,sans-serif" font-weight="400" font-size="16" transform="translate(910.8 236)">第</text><text font-family="Arial,Arial_MSFontService,sans-serif" font-weight="400" font-size="16" transform="translate(926.8 236)">2</text><text font-family="MS Gothic,MS Gothic_MSFontService,sans-serif" font-weight="400" font-size="16" transform="translate(935.8 236)">励起</text><text font-family="Arial,Arial_MSFontService,sans-serif" font-weight="400" font-size="16" transform="translate(967.8 236)">)</text><path d="M981.1 231.1 1023.3 231.1M305.2 584.4 321.7 584.4 338.2 584.4 354.7 584.4 371.2 584.4 387.6 584.4 404.1 584.4 420.6 584.4 437.1 584.4 453.5 584.4 470 584.4 486.5 584.4 503 584.4 519.4 584.4 535.9 584.4 552.4 584.4 568.9 584.4 585.3 584.4 601.8 584.4 618.3 584.4 634.8 584.4 651.2 584.4 667.7 584.4 684.2 584.4 700.7 584.4 700.71 584.4" stroke="#FFA500" fill="none"/><path d="M309.7 584.4C309.7 586.885 307.685 588.9 305.2 588.9 302.715 588.9 300.7 586.885 300.7 584.4 300.7 581.915 302.715 579.9 305.2 579.9 307.685 579.9 309.7 581.915 309.7 584.4Z" stroke="#FFA500" stroke-width="0.999" fill="#FFA500"/><path d="M326.2 584.4C326.2 586.885 324.185 588.9 321.7 588.9 319.215 588.9 317.2 586.885 317.2 584.4 317.2 581.915 319.215 579.9 321.7 579.9 324.185 579.9 326.2 581.915 326.2 584.4Z" stroke="#FFA500" stroke-width="0.999" fill="#FFA500"/><path d="M342.7 584.4C342.7 586.885 340.685 588.9 338.2 588.9 335.715 588.9 333.7 586.885 333.7 584.4 333.7 581.915 335.715 579.9 338.2 579.9 340.685 579.9 342.7 581.915 342.7 584.4Z" stroke="#FFA500" stroke-width="0.999" fill="#FFA500"/><path d="M359.2 584.4C359.2 586.885 357.185 588.9 354.7 588.9 352.215 588.9 350.2 586.885 350.2 584.4 350.2 581.915 352.215 579.9 354.7 579.9 357.185 579.9 359.2 581.915 359.2 584.4Z" stroke="#FFA500" stroke-width="0.999" fill="#FFA500"/><path d="M375.7 584.4C375.7 586.885 373.685 588.9 371.2 588.9 368.715 588.9 366.7 586.885 366.7 584.4 366.7 581.915 368.715 579.9 371.2 579.9 373.685 579.9 375.7 581.915 375.7 584.4Z" stroke="#FFA500" stroke-width="0.999" fill="#FFA500"/><path d="M392.1 584.4C392.1 586.885 390.085 588.9 387.6 588.9 385.115 588.9 383.1 586.885 383.1 584.4 383.1 581.915 385.115 579.9 387.6 579.9 390.085 579.9 392.1 581.915 392.1 584.4Z" stroke="#FFA500" stroke-width="0.999" fill="#FFA500"/><path d="M408.6 584.4C408.6 586.885 406.585 588.9 404.1 588.9 401.615 588.9 399.6 586.885 399.6 584.4 399.6 581.915 401.615 579.9 404.1 579.9 406.585 579.9 408.6 581.915 408.6 584.4Z" stroke="#FFA500" stroke-width="0.999" fill="#FFA500"/><path d="M425.1 584.4C425.1 586.885 423.085 588.9 420.6 588.9 418.115 588.9 416.1 586.885 416.1 584.4 416.1 581.915 418.115 579.9 420.6 579.9 423.085 579.9 425.1 581.915 425.1 584.4Z" stroke="#FFA500" stroke-width="0.999" fill="#FFA500"/><path d="M441.6 584.4C441.6 586.885 439.585 588.9 437.1 588.9 434.615 588.9 432.6 586.885 432.6 584.4 432.6 581.915 434.615 579.9 437.1 579.9 439.585 579.9 441.6 581.915 441.6 584.4Z" stroke="#FFA500" stroke-width="0.999" fill="#FFA500"/><path d="M458 584.4C458 586.885 455.985 588.9 453.5 588.9 451.015 588.9 449 586.885 449 584.4 449 581.915 451.015 579.9 453.5 579.9 455.985 579.9 458 581.915 458 584.4Z" stroke="#FFA500" stroke-width="0.999" fill="#FFA500"/><path d="M474.5 584.4C474.5 586.885 472.485 588.9 470 588.9 467.515 588.9 465.5 586.885 465.5 584.4 465.5 581.915 467.515 579.9 470 579.9 472.485 579.9 474.5 581.915 474.5 584.4Z" stroke="#FFA500" stroke-width="0.999" fill="#FFA500"/><path d="M491 584.4C491 586.885 488.985 588.9 486.5 588.9 484.015 588.9 482 586.885 482 584.4 482 581.915 484.015 579.9 486.5 579.9 488.985 579.9 491 581.915 491 584.4Z" stroke="#FFA500" stroke-width="0.999" fill="#FFA500"/><path d="M507.5 584.4C507.5 586.885 505.485 588.9 503 588.9 500.515 588.9 498.5 586.885 498.5 584.4 498.5 581.915 500.515 579.9 503 579.9 505.485 579.9 507.5 581.915 507.5 584.4Z" stroke="#FFA500" stroke-width="0.999" fill="#FFA500"/><path d="M523.9 584.4C523.9 586.885 521.885 588.9 519.4 588.9 516.915 588.9 514.9 586.885 514.9 584.4 514.9 581.915 516.915 579.9 519.4 579.9 521.885 579.9 523.9 581.915 523.9 584.4Z" stroke="#FFA500" stroke-width="0.999" fill="#FFA500"/><path d="M540.4 584.4C540.4 586.885 538.385 588.9 535.9 588.9 533.415 588.9 531.4 586.885 531.4 584.4 531.4 581.915 533.415 579.9 535.9 579.9 538.385 579.9 540.4 581.915 540.4 584.4Z" stroke="#FFA500" stroke-width="0.999" fill="#FFA500"/><path d="M556.9 584.4C556.9 586.885 554.885 588.9 552.4 588.9 549.915 588.9 547.9 586.885 547.9 584.4 547.9 581.915 549.915 579.9 552.4 579.9 554.885 579.9 556.9 581.915 556.9 584.4Z" stroke="#FFA500" stroke-width="0.999" fill="#FFA500"/><path d="M573.4 584.4C573.4 586.885 571.385 588.9 568.9 588.9 566.415 588.9 564.4 586.885 564.4 584.4 564.4 581.915 566.415 579.9 568.9 579.9 571.385 579.9 573.4 581.915 573.4 584.4Z" stroke="#FFA500" stroke-width="0.999" fill="#FFA500"/><path d="M589.8 584.4C589.8 586.885 587.785 588.9 585.3 588.9 582.815 588.9 580.8 586.885 580.8 584.4 580.8 581.915 582.815 579.9 585.3 579.9 587.785 579.9 589.8 581.915 589.8 584.4Z" stroke="#FFA500" stroke-width="0.999" fill="#FFA500"/><path d="M606.3 584.4C606.3 586.885 604.285 588.9 601.8 588.9 599.315 588.9 597.3 586.885 597.3 584.4 597.3 581.915 599.315 579.9 601.8 579.9 604.285 579.9 606.3 581.915 606.3 584.4Z" stroke="#FFA500" stroke-width="0.999" fill="#FFA500"/><path d="M622.8 584.4C622.8 586.885 620.785 588.9 618.3 588.9 615.815 588.9 613.8 586.885 613.8 584.4 613.8 581.915 615.815 579.9 618.3 579.9 620.785 579.9 622.8 581.915 622.8 584.4Z" stroke="#FFA500" stroke-width="0.999" fill="#FFA500"/><path d="M639.3 584.4C639.3 586.885 637.285 588.9 634.8 588.9 632.315 588.9 630.3 586.885 630.3 584.4 630.3 581.915 632.315 579.9 634.8 579.9 637.285 579.9 639.3 581.915 639.3 584.4Z" stroke="#FFA500" stroke-width="0.999" fill="#FFA500"/><path d="M655.7 584.4C655.7 586.885 653.685 588.9 651.2 588.9 648.715 588.9 646.7 586.885 646.7 584.4 646.7 581.915 648.715 579.9 651.2 579.9 653.685 579.9 655.7 581.915 655.7 584.4Z" stroke="#FFA500" stroke-width="0.999" fill="#FFA500"/><path d="M672.2 584.4C672.2 586.885 670.185 588.9 667.7 588.9 665.215 588.9 663.2 586.885 663.2 584.4 663.2 581.915 665.215 579.9 667.7 579.9 670.185 579.9 672.2 581.915 672.2 584.4Z" stroke="#FFA500" stroke-width="0.999" fill="#FFA500"/><path d="M688.7 584.4C688.7 586.885 686.685 588.9 684.2 588.9 681.715 588.9 679.7 586.885 679.7 584.4 679.7 581.915 681.715 579.9 684.2 579.9 686.685 579.9 688.7 581.915 688.7 584.4Z" stroke="#FFA500" stroke-width="0.999" fill="#FFA500"/><path d="M705.2 584.4C705.2 586.885 703.185 588.9 700.7 588.9 698.215 588.9 696.2 586.885 696.2 584.4 696.2 581.915 698.215 579.9 700.7 579.9 703.185 579.9 705.2 581.915 705.2 584.4Z" stroke="#FFA500" stroke-width="0.999" fill="#FFA500"/><path d="M1006.7 231.1C1006.7 233.585 1004.69 235.6 1002.2 235.6 999.715 235.6 997.7 233.585 997.7 231.1 997.7 228.615 999.715 226.6 1002.2 226.6 1004.69 226.6 1006.7 228.615 1006.7 231.1Z" stroke="#FFA500" stroke-width="0.999" fill="#FFA500"/><text font-family="MS Gothic,MS Gothic_MSFontService,sans-serif" font-weight="400" font-size="16" transform="translate(825.8 254)">調和解析解</text><text font-family="Arial,Arial_MSFontService,sans-serif" font-weight="400" font-size="16" transform="translate(905.8 254)">(</text><text font-family="MS Gothic,MS Gothic_MSFontService,sans-serif" font-weight="400" font-size="16" transform="translate(910.8 254)">第</text><text font-family="Arial,Arial_MSFontService,sans-serif" font-weight="400" font-size="16" transform="translate(926.8 254)">2</text><text font-family="MS Gothic,MS Gothic_MSFontService,sans-serif" font-weight="400" font-size="16" transform="translate(935.8 254)">励起</text><text font-family="Arial,Arial_MSFontService,sans-serif" font-weight="400" font-size="16" transform="translate(967.8 254)">)</text><path d="M981.1 249.1 1023.3 249.1M305.2 584.4 321.7 584.4 338.2 584.4 354.7 584.4 371.2 584.4 387.6 584.4 404.1 584.4 420.6 584.4 437.1 584.4 453.5 584.4 470 584.4 486.5 584.4 503 584.4 519.4 584.4 535.9 584.4 552.4 584.4 568.9 584.4 585.3 584.4 601.8 584.4 618.3 584.4 634.8 584.4 651.2 584.4 667.7 584.4 684.2 584.4 700.7 584.4 700.71 584.4" stroke="#9ACD32" fill="none"/><path d="M305.2 578.415 299.215 587.415 311.185 587.415Z" stroke="#9ACD32" stroke-width="0.999" fill="none"/><path d="M321.7 578.415 315.715 587.415 327.685 587.415Z" stroke="#9ACD32" stroke-width="0.999" fill="none"/><path d="M338.2 578.415 332.215 587.415 344.185 587.415Z" stroke="#9ACD32" stroke-width="0.999" fill="none"/><path d="M354.7 578.415 348.715 587.415 360.685 587.415Z" stroke="#9ACD32" stroke-width="0.999" fill="none"/><path d="M371.2 578.415 365.215 587.415 377.185 587.415Z" stroke="#9ACD32" stroke-width="0.999" fill="none"/><path d="M387.6 578.415 381.615 587.415 393.585 587.415Z" stroke="#9ACD32" stroke-width="0.999" fill="none"/><path d="M404.1 578.415 398.115 587.415 410.085 587.415Z" stroke="#9ACD32" stroke-width="0.999" fill="none"/><path d="M420.6 578.415 414.615 587.415 426.585 587.415Z" stroke="#9ACD32" stroke-width="0.999" fill="none"/><path d="M437.1 578.415 431.115 587.415 443.085 587.415Z" stroke="#9ACD32" stroke-width="0.999" fill="none"/><path d="M453.5 578.415 447.515 587.415 459.485 587.415Z" stroke="#9ACD32" stroke-width="0.999" fill="none"/><path d="M470 578.415 464.015 587.415 475.985 587.415Z" stroke="#9ACD32" stroke-width="0.999" fill="none"/><path d="M486.5 578.415 480.515 587.415 492.485 587.415Z" stroke="#9ACD32" stroke-width="0.999" fill="none"/><path d="M503 578.415 497.015 587.415 508.985 587.415Z" stroke="#9ACD32" stroke-width="0.999" fill="none"/><path d="M519.4 578.415 513.415 587.415 525.385 587.415Z" stroke="#9ACD32" stroke-width="0.999" fill="none"/><path d="M535.9 578.415 529.915 587.415 541.885 587.415Z" stroke="#9ACD32" stroke-width="0.999" fill="none"/><path d="M552.4 578.415 546.415 587.415 558.385 587.415Z" stroke="#9ACD32" stroke-width="0.999" fill="none"/><path d="M568.9 578.415 562.915 587.415 574.885 587.415Z" stroke="#9ACD32" stroke-width="0.999" fill="none"/><path d="M585.3 578.415 579.315 587.415 591.285 587.415Z" stroke="#9ACD32" stroke-width="0.999" fill="none"/><path d="M601.8 578.415 595.815 587.415 607.785 587.415Z" stroke="#9ACD32" stroke-width="0.999" fill="none"/><path d="M618.3 578.415 612.315 587.415 624.285 587.415Z" stroke="#9ACD32" stroke-width="0.999" fill="none"/><path d="M634.8 578.415 628.815 587.415 640.785 587.415Z" stroke="#9ACD32" stroke-width="0.999" fill="none"/><path d="M651.2 578.415 645.215 587.415 657.185 587.415Z" stroke="#9ACD32" stroke-width="0.999" fill="none"/><path d="M667.7 578.415 661.715 587.415 673.685 587.415Z" stroke="#9ACD32" stroke-width="0.999" fill="none"/><path d="M684.2 578.415 678.215 587.415 690.185 587.415Z" stroke="#9ACD32" stroke-width="0.999" fill="none"/><path d="M700.7 578.415 694.715 587.415 706.685 587.415Z" stroke="#9ACD32" stroke-width="0.999" fill="none"/><path d="M1002.2 243.115 996.215 252.115 1008.18 252.115Z" stroke="#9ACD32" stroke-width="0.999" fill="none"/><text font-family="Arial,Arial_MSFontService,sans-serif" font-weight="400" font-size="16" transform="translate(812.8 272)">Hybrid</text><text font-family="MS Gothic,MS Gothic_MSFontService,sans-serif" font-weight="400" font-size="16" transform="translate(857.8 272)">数値解</text><text font-family="Arial,Arial_MSFontService,sans-serif" font-weight="400" font-size="16" transform="translate(905.8 272)">(</text><text font-family="MS Gothic,MS Gothic_MSFontService,sans-serif" font-weight="400" font-size="16" transform="translate(910.8 272)">第</text><text font-family="Arial,Arial_MSFontService,sans-serif" font-weight="400" font-size="16" transform="translate(926.8 272)">2</text><text font-family="MS Gothic,MS Gothic_MSFontService,sans-serif" font-weight="400" font-size="16" transform="translate(935.8 272)">励起</text><text font-family="Arial,Arial_MSFontService,sans-serif" font-weight="400" font-size="16" transform="translate(967.8 272)">)</text><path d="M981.1 267.1 1023.3 267.1M305.2 364 321.7 353.3 338.2 342.6 354.7 332.1 371.2 321.7 387.6 311.4 404.1 301.3 420.6 291.2 437.1 281.3 453.5 271.5 470 261.8 486.5 252.2 503 242.8 519.4 233.4 535.9 224.2 552.4 215.1 568.9 206.1 585.3 197.2 601.8 188.4 618.3 179.8 634.8 171.2 651.2 162.7 667.7 154.4 684.2 146.1 700.7 137.9 700.71 137.9" stroke="#0000FF" fill="none"/><path d="M305.2 358.015 299.215 367.015 311.185 367.015Z" stroke="#0000FF" stroke-width="0.999" fill="#0000FF"/><path d="M321.7 347.315 315.715 356.315 327.685 356.315Z" stroke="#0000FF" stroke-width="0.999" fill="#0000FF"/><path d="M338.2 336.615 332.215 345.615 344.185 345.615Z" stroke="#0000FF" stroke-width="0.999" fill="#0000FF"/><path d="M354.7 326.115 348.715 335.115 360.685 335.115Z" stroke="#0000FF" stroke-width="0.999" fill="#0000FF"/><path d="M371.2 315.715 365.215 324.715 377.185 324.715Z" stroke="#0000FF" stroke-width="0.999" fill="#0000FF"/><path d="M387.6 305.415 381.615 314.415 393.585 314.415Z" stroke="#0000FF" stroke-width="0.999" fill="#0000FF"/><path d="M404.1 295.315 398.115 304.315 410.085 304.315Z" stroke="#0000FF" stroke-width="0.999" fill="#0000FF"/><path d="M420.6 285.215 414.615 294.215 426.585 294.215Z" stroke="#0000FF" stroke-width="0.999" fill="#0000FF"/><path d="M437.1 275.315 431.115 284.315 443.085 284.315Z" stroke="#0000FF" stroke-width="0.999" fill="#0000FF"/><path d="M453.5 265.515 447.515 274.515 459.485 274.515Z" stroke="#0000FF" stroke-width="0.999" fill="#0000FF"/><path d="M470 255.815 464.015 264.815 475.985 264.815Z" stroke="#0000FF" stroke-width="0.999" fill="#0000FF"/><path d="M486.5 246.215 480.515 255.215 492.485 255.215Z" stroke="#0000FF" stroke-width="0.999" fill="#0000FF"/><path d="M503 236.815 497.015 245.815 508.985 245.815Z" stroke="#0000FF" stroke-width="0.999" fill="#0000FF"/><path d="M519.4 227.415 513.415 236.415 525.385 236.415Z" stroke="#0000FF" stroke-width="0.999" fill="#0000FF"/><path d="M535.9 218.215 529.915 227.215 541.885 227.215Z" stroke="#0000FF" stroke-width="0.999" fill="#0000FF"/><path d="M552.4 209.115 546.415 218.115 558.385 218.115Z" stroke="#0000FF" stroke-width="0.999" fill="#0000FF"/><path d="M568.9 200.115 562.915 209.115 574.885 209.115Z" stroke="#0000FF" stroke-width="0.999" fill="#0000FF"/><path d="M585.3 191.215 579.315 200.215 591.285 200.215Z" stroke="#0000FF" stroke-width="0.999" fill="#0000FF"/><path d="M601.8 182.415 595.815 191.415 607.785 191.415Z" stroke="#0000FF" stroke-width="0.999" fill="#0000FF"/><path d="M618.3 173.815 612.315 182.815 624.285 182.815Z" stroke="#0000FF" stroke-width="0.999" fill="#0000FF"/><path d="M634.8 165.215 628.815 174.215 640.785 174.215Z" stroke="#0000FF" stroke-width="0.999" fill="#0000FF"/><path d="M651.2 156.715 645.215 165.715 657.185 165.715Z" stroke="#0000FF" stroke-width="0.999" fill="#0000FF"/><path d="M667.7 148.415 661.715 157.415 673.685 157.415Z" stroke="#0000FF" stroke-width="0.999" fill="#0000FF"/><path d="M684.2 140.115 678.215 149.115 690.185 149.115Z" stroke="#0000FF" stroke-width="0.999" fill="#0000FF"/><path d="M700.7 131.915 694.715 140.915 706.685 140.915Z" stroke="#0000FF" stroke-width="0.999" fill="#0000FF"/><path d="M1002.2 261.115 996.215 270.115 1008.18 270.115Z" stroke="#0000FF" stroke-width="0.999" fill="#0000FF"/><text font-family="MS Gothic,MS Gothic_MSFontService,sans-serif" font-weight="400" font-size="16" transform="translate(844.8 290)">切片</text><text font-family="MS Gothic,MS Gothic_MSFontService,sans-serif" font-weight="400" font-size="16" transform="translate(876.8 290)">ポテンシャル</text><path d="M981.1 285.1 1023.3 285.1M305.2 581.9 321.7 556.9 338.2 531.9 354.7 506.9 371.2 481.9 387.6 456.8 404.1 431.8 420.6 406.8 437.1 381.8 453.5 356.8 470 331.8 486.5 306.8 503 281.8 519.4 256.8 535.9 231.7 552.4 206.7 568.9 181.7 585.3 156.7 601.8 131.7 613.4 114.1 613.41 114.1" stroke="#EE82EE" fill="none"/><path d="M305.2 587.885 311.185 578.885 299.215 578.885Z" stroke="#EE82EE" stroke-width="0.999" fill="none"/><path d="M321.7 562.885 327.685 553.885 315.715 553.885Z" stroke="#EE82EE" stroke-width="0.999" fill="none"/><path d="M338.2 537.885 344.185 528.885 332.215 528.885Z" stroke="#EE82EE" stroke-width="0.999" fill="none"/><path d="M354.7 512.885 360.685 503.885 348.715 503.885Z" stroke="#EE82EE" stroke-width="0.999" fill="none"/><path d="M371.2 487.885 377.185 478.885 365.215 478.885Z" stroke="#EE82EE" stroke-width="0.999" fill="none"/><path d="M387.6 462.785 393.585 453.785 381.615 453.785Z" stroke="#EE82EE" stroke-width="0.999" fill="none"/><path d="M404.1 437.785 410.085 428.785 398.115 428.785Z" stroke="#EE82EE" stroke-width="0.999" fill="none"/><path d="M420.6 412.785 426.585 403.785 414.615 403.785Z" stroke="#EE82EE" stroke-width="0.999" fill="none"/><path d="M437.1 387.785 443.085 378.785 431.115 378.785Z" stroke="#EE82EE" stroke-width="0.999" fill="none"/><path d="M453.5 362.785 459.485 353.785 447.515 353.785Z" stroke="#EE82EE" stroke-width="0.999" fill="none"/><path d="M470 337.785 475.985 328.785 464.015 328.785Z" stroke="#EE82EE" stroke-width="0.999" fill="none"/><path d="M486.5 312.785 492.485 303.785 480.515 303.785Z" stroke="#EE82EE" stroke-width="0.999" fill="none"/><path d="M503 287.785 508.985 278.785 497.015 278.785Z" stroke="#EE82EE" stroke-width="0.999" fill="none"/><path d="M519.4 262.785 525.385 253.785 513.415 253.785Z" stroke="#EE82EE" stroke-width="0.999" fill="none"/><path d="M535.9 237.685 541.885 228.685 529.915 228.685Z" stroke="#EE82EE" stroke-width="0.999" fill="none"/><path d="M552.4 212.685 558.385 203.685 546.415 203.685Z" stroke="#EE82EE" stroke-width="0.999" fill="none"/><path d="M568.9 187.685 574.885 178.685 562.915 178.685Z" stroke="#EE82EE" stroke-width="0.999" fill="none"/><path d="M585.3 162.685 591.285 153.685 579.315 153.685Z" stroke="#EE82EE" stroke-width="0.999" fill="none"/><path d="M601.8 137.685 607.785 128.685 595.815 128.685Z" stroke="#EE82EE" stroke-width="0.999" fill="none"/><path d="M1002.2 291.085 1008.18 282.085 996.215 282.085Z" stroke="#EE82EE" stroke-width="0.999" fill="none"/><path d="M303.6 114.1 303.6 584.4 715.5 584.4 715.5 114.1 303.6 114.1ZM303.6 114.1 303.61 114.1" stroke="#000000" fill="none"/></g></svg>